{"title":"Salim (2014) DVD Scr XviD MP3 700MB - Shammu.avi","uid":10968209,"size":745572372,"categoryP":"video","categoryS":"movies","magnet":"?xt=urn:btih:5a3a42fd8b3e0816883df6f7fd101217782a9bd2&amp;dn=Salim+%282014%29+DVD+Scr+XviD+MP3+700MB+-+Shammu.avi&amp;tr=udp%3A%2F%2Ftracker.openbittorrent.com%3A80&amp;tr=udp%3A%2F%2Fopen.demonii.com%3A1337&amp;tr=udp%3A%2F%2Ftracker.coppersurfer.tk%3A6969&amp;tr=udp%3A%2F%2Fexodus.desync.com%3A6969","seeders":1,"leechers":0,"uploader":"TeamXDN","files":-1,"time":1409769841,"description":"Format                                   : AVI\nFormat/Info                              : Audio Video Interleave\nFile size                                : 711 MiB\nDuration                                 : 2h 19mn\nOverall bit rate                         : 712 Kbps\n\nVideo\nID                                       : 0\nFormat                                   : MPEG-4 Visual\nFormat profile                           : Advanced Simple@L5\nFormat settings, BVOP                    : 2\nFormat settings, QPel                    : No\nFormat settings, GMC                     : No warppoints\nFormat settings, Matrix                  : Default (H.263)\nCodec ID                                 : XVID\nCodec ID/Hint                            : XviD\nDuration                                 : 2h 19mn\nBit rate                                 : 624 Kbps\nWidth                                    : 608 pixels\nHeight                                   : 252 pixels\nDisplay aspect ratio                     : 2.40:1\nFrame rate                               : 29.970 fps\nColor space                              : YUV\nChroma subsampling                       : 4:2:0\nBit depth                                : 8 bits\nScan type                                : Progressive\nCompression mode                         : Lossy\nBits/(Pixel*Frame)                       : 0.136\nStream size                              : 624 MiB (88%)\nWriting library                          : XviD 1.2.1 (UTC 2008-12-04)\n\nAudio\nID                                       : 1\nFormat                                   : MPEG Audio\nFormat version                           : Version 1\nFormat profile                           : Layer 3\nMode                                     : Joint stereo\nMode extension                           : MS Stereo\nCodec ID                                 : 55\nCodec ID/Hint                            : MP3\nDuration                                 : 2h 19mn\nBit rate mode                            : Constant\nBit rate                                 : 80.0 Kbps\nChannel(s)                               : 2 channels\nSampling rate                            : 32.0 KHz\nCompression mode                         : Lossy\nStream size                              : 79.9 MiB (11%)\nAlignment                                : Aligned on interleaves\nInterleave, duration                     : 133 ms (4.00 video frames)\nInterleave, preload duration             : 216 ms\nTitle                                    : sale Tc0 L2 2ch 48 128 DELAY 0ms\nWriting library                          : LAME3.99r\nEncoding settings                        : -m j -V 4 -q 2 -lowpass 13.5 -b 80\n\n\n &lt;a href=&quot;\nhttp://ttsnapshot.biz/show.php/124780_001.png.html&quot; rel=&quot;nofollow&quot; target=&quot;_NEW&quot;&gt;\nhttp://ttsnapshot.biz/show.php/124780_001.png.html&lt;/a&gt; http://ttsnapshot.biz/show.php/124781_002.png.html http://ttsnapshot.biz/show.php/124782_003.png.html &lt;a href=&quot;\nhttp://ttsnapshot.biz/show.php/124783_004.png.html&quot; rel=&quot;nofollow&quot; target=&quot;_NEW&quot;&gt;\nhttp://ttsnapshot.biz/show.php/124783_004.png.html&lt;/a&gt; http://ttsnapshot.biz/show.php/124784_005.png.html http://ttsnapshot.biz/show.php/124785_006.png.html &lt;a href=&quot;\nhttp://ttsnapshot.biz/show.php/124786_007.png.html&quot; rel=&quot;nofollow&quot; target=&quot;_NEW&quot;&gt;\nhttp://ttsnapshot.biz/show.php/124786_007.png.html&lt;/a&gt; http://ttsnapshot.biz/show.php/124787_008.png.html http://ttsnapshot.biz/show.php/124788_009.png.html &lt;a href=&quot;\nhttp://ttsnapshot.biz/show.php/124789_010.png.html&quot; rel=&quot;nofollow&quot; target=&quot;_NEW&quot;&gt;\nhttp://ttsnapshot.biz/show.php/124789_010.png.html&lt;/a&gt; ","torrent":{"xt":"urn:btih:5a3a42fd8b3e0816883df6f7fd101217782a9bd2","amp;dn":"Salim+%282014%29+DVD+Scr+XviD+MP3+700MB+-+Shammu.avi","amp;tr":["udp%3A%2F%2Ftracker.openbittorrent.com%3A80","udp%3A%2F%2Fopen.demonii.com%3A1337","udp%3A%2F%2Ftracker.coppersurfer.tk%3A6969","udp%3A%2F%2Fexodus.desync.com%3A6969"],"infoHash":"5a3a42fd8b3e0816883df6f7fd101217782a9bd2","infoHashBuffer":{"type":"Buffer","data":[90,58,66,253,139,62,8,22,136,61,246,247,253,16,18,23,120,42,155,210]},"announce":[],"urlList":[]}}